HIERARCHY
ROOT Hips
{
	OFFSET -1.602300 6.242603 43.997101
	CHANNELS 6 Xposition Yposition Zposition Zrotation Xrotation Yrotation
	JOINT Chest
	{
		OFFSET -0.204900 1.598101 7.917301
		CHANNELS 6 Xposition Yposition Zposition Zrotation Xrotation Yrotation
		JOINT Chest2
		{
			OFFSET 0.000000 0.000000 3.404099
			CHANNELS 6 Xposition Yposition Zposition Zrotation Xrotation Yrotation
			JOINT Neck
			{
				OFFSET 0.000000 0.000000 7.928600
				CHANNELS 6 Xposition Yposition Zposition Zrotation Xrotation Yrotation
				JOINT Head
				{
					OFFSET 0.000000 0.000000 2.173897
					CHANNELS 6 Xposition Yposition Zposition Zrotation Xrotation Yrotation
					End Site
					{
						OFFSET 0.000000 0.000001 10.404503
					}
				}
			}
			JOINT LeftCollar
			{
				OFFSET 2.833800 -1.396299 4.843300
				CHANNELS 6 Xposition Yposition Zposition Zrotation Xrotation Yrotation
				JOINT LeftShoulder
				{
					OFFSET 4.363600 0.000000 0.000000
					CHANNELS 6 Xposition Yposition Zposition Zrotation Xrotation Yrotation
					JOINT LeftElbow
					{
						OFFSET 0.000000 -0.000001 -10.306900
						CHANNELS 6 Xposition Yposition Zposition Zrotation Xrotation Yrotation
						JOINT LeftWrist
						{
							OFFSET 0.000000 -0.000001 -12.404900
							CHANNELS 6 Xposition Yposition Zposition Zrotation Xrotation Yrotation
							End Site
							{
								OFFSET 0.000000 0.000000 -2.173901
							}
						}
					}
				}
			}
			JOINT RightCollar
			{
				OFFSET -2.354800 -1.897200 5.063099
				CHANNELS 6 Xposition Yposition Zposition Zrotation Xrotation Yrotation
				JOINT RightShoulder
				{
					OFFSET -4.375800 0.000000 0.000000
					CHANNELS 6 Xposition Yposition Zposition Zrotation Xrotation Yrotation
					JOINT RightElbow
					{
						OFFSET 0.000000 -0.000001 -10.005001
						CHANNELS 6 Xposition Yposition Zposition Zrotation Xrotation Yrotation
						JOINT RightWrist
						{
							OFFSET 0.000000 -0.000001 -13.174900
							CHANNELS 6 Xposition Yposition Zposition Zrotation Xrotation Yrotation
							End Site
							{
								OFFSET 0.000000 0.000000 -2.173901
							}
						}
					}
				}
			}
		}
	}
	JOINT LeftHip
	{
		OFFSET 2.240600 0.386800 -2.614101
		CHANNELS 6 Xposition Yposition Zposition Zrotation Xrotation Yrotation
		JOINT LeftKnee
		{
			OFFSET 0.000000 -0.000001 -18.592899
			CHANNELS 6 Xposition Yposition Zposition Zrotation Xrotation Yrotation
			JOINT LeftAnkle
			{
				OFFSET 0.000000 -0.000001 -18.765800
				CHANNELS 6 Xposition Yposition Zposition Zrotation Xrotation Yrotation
				End Site
				{
					OFFSET 0.000000 -8.655000 0.000000
				}
			}
		}
	}
	JOINT RightHip
	{
		OFFSET -2.014900 -0.220900 -2.615898
		CHANNELS 6 Xposition Yposition Zposition Zrotation Xrotation Yrotation
		JOINT RightKnee
		{
			OFFSET 0.000000 -0.000001 -18.633900
			CHANNELS 6 Xposition Yposition Zposition Zrotation Xrotation Yrotation
			JOINT RightAnkle
			{
				OFFSET 0.000000 -0.000001 -18.285101
				CHANNELS 6 Xposition Yposition Zposition Zrotation Xrotation Yrotation
				End Site
				{
					OFFSET 0.000000 -7.524500 0.000000
				}
			}
		}
	}
}
MOTION
Frames: 6
Frame Time: 0.041667
-5.865600 26.863201 7.054718 2.788962 -4.472259 3.872204 -0.204900 1.598099 7.917311 -0.874189 29.453080 -2.913749 -0.000000 -0.000004 3.404099 4.548739 -12.454675 -0.712416 -0.000000 -0.000001 7.928599 -0.800846 12.093482 2.046276 -0.000000 -0.000003 2.173907 0.167281 0.869759 0.969953 2.833801 -1.396299 4.843300 -3.034712 5.069526 15.219294 4.363595 0.000006 0.000005 -57.263739 -10.877222 -71.032909 0.000001 0.000005 -10.306906 271.962369 -116.662363 281.529251 -0.000000 0.000005 -12.404896 -236.196411 193.558641 -216.473666 -2.354802 -1.897201 5.063101 14.140539 6.626473 -5.950549 -4.375796 0.000002 -0.000002 192.974400 -64.987863 261.221213 -0.000013 -0.000008 -10.005012 43.155734 21.190764 -115.261109 -0.000009 0.000005 -13.174911 140.182748 -185.873435 66.311137 2.240599 0.386801 -2.614099 135.990146 -39.284864 101.168031 -0.000001 0.000001 -18.592896 -114.874506 43.566075 138.535675 -0.000001 0.000001 -18.765799 8.125487 35.765490 -8.715469 -2.014897 -0.220897 -2.615895 -114.260828 -17.381303 -92.819225 -0.000000 0.000005 -18.633886 156.459266 22.120182 -173.706969 -0.000006 -0.000003 -18.285084 -36.360877 32.551975 -216.441359
-5.868899 26.813904 7.083210 2.725203 -4.100458 3.776193 -0.204900 1.598100 7.917303 -0.891805 28.914909 -2.848231 0.000001 0.000001 3.404103 4.417486 -12.434024 -0.742378 -0.000000 0.000002 7.928601 -0.779339 12.326620 2.020253 0.000000 -0.000003 2.173900 0.168132 0.706133 0.996457 2.833801 -1.396300 4.843304 -2.953240 4.859671 15.416726 4.363595 0.000009 0.000002 -57.291282 -10.378181 -70.880097 0.000001 0.000007 -10.306905 270.824869 -115.964741 280.147340 -0.000002 0.000002 -12.404896 -235.373619 194.073200 -216.893272 -2.354802 -1.897201 5.063106 14.097714 6.677253 -5.645645 -4.375790 0.000004 -0.000004 193.186355 -65.096340 261.433058 -0.000013 -0.000010 -10.005007 42.950583 20.860670 -114.685037 -0.000003 0.000005 -13.174909 139.580885 -185.898392 65.745454 2.240598 0.386804 -2.614105 136.245513 -38.876955 101.296992 0.000002 -0.000002 -18.592894 -114.882102 43.324020 138.532861 -0.000001 0.000000 -18.765799 8.293947 35.703076 -9.021555 -2.014898 -0.220895 -2.615904 -114.325919 -17.277409 -93.098217 0.000000 0.000003 -18.633884 156.460304 22.072332 -173.682449 -0.000007 -0.000003 -18.285086 -36.399499 32.516010 -216.412864
-5.867499 26.759308 7.109299 2.678633 -3.639530 3.706615 -0.204900 1.598097 7.917305 -0.913836 28.327549 -2.808367 0.000000 0.000002 3.404104 4.343580 -12.492983 -0.762081 0.000000 -0.000004 7.928601 -0.665534 12.509909 1.864822 -0.000000 -0.000003 2.173903 0.069213 0.520664 1.055928 2.833803 -1.396304 4.843305 -2.844388 4.693008 15.755501 4.363595 0.000005 -0.000004 -57.360072 -9.811796 -70.968350 -0.000001 0.000007 -10.306906 269.460361 -115.760942 278.745484 -0.000001 0.000005 -12.404899 -234.623282 194.772502 -217.328082 -2.354801 -1.897204 5.063105 13.912279 6.620420 -5.479799 -4.375791 0.000004 -0.000003 193.261842 -65.765460 261.433987 -0.000010 -0.000007 -10.005008 42.289840 20.674718 -114.097156 -0.000007 0.000004 -13.174910 139.366308 -186.024068 65.363585 2.240597 0.386804 -2.614102 136.537599 -38.502166 101.550979 -0.000000 -0.000001 -18.592897 -114.782258 43.048377 138.501852 -0.000000 0.000001 -18.765799 8.513476 35.600732 -9.334732 -2.014903 -0.220895 -2.615900 -114.452039 -17.120498 -93.450628 -0.000000 0.000002 -18.633886 156.460660 22.003268 -173.664923 -0.000007 0.000000 -18.285084 -36.433407 32.477768 -216.389737
-5.866199 26.704407 7.131908 2.557066 -3.142174 3.699589 -0.204899 1.598099 7.917305 -0.841042 27.628684 -2.766793 -0.000000 0.000000 3.404096 4.151517 -12.542639 -0.774604 -0.000001 0.000002 7.928596 -0.455695 12.681340 1.575734 -0.000000 -0.000002 2.173903 -0.029856 0.343164 1.160558 2.833801 -1.396300 4.843302 -3.346526 5.443992 16.266439 4.363595 0.000006 -0.000005 -57.117529 -9.687077 -72.226245 0.000001 0.000009 -10.306904 268.152271 -115.357565 277.458567 -0.000002 0.000002 -12.404899 -233.387619 195.664593 -218.072340 -2.354801 -1.897197 5.063099 14.285359 7.225106 -6.082336 -4.375792 0.000008 -0.000003 191.121165 -65.029548 259.308268 -0.000014 -0.000008 -10.005008 42.321030 20.571032 -113.607780 -0.000006 0.000004 -13.174910 138.808200 -186.218455 65.196266 2.240598 0.386800 -2.614104 136.968488 -38.096709 101.935970 -0.000000 -0.000001 -18.592894 -114.716633 42.745977 138.471745 -0.000001 0.000002 -18.765799 8.747708 35.488133 -9.561165 -2.014897 -0.220898 -2.615901 -114.548399 -16.797701 -93.878901 -0.000000 0.000003 -18.633883 156.546338 21.925385 -173.655470 -0.000006 -0.000001 -18.285086 -36.460547 32.467837 -216.379054
-5.865799 26.642601 7.153816 2.457079 -2.676406 3.705924 -0.204900 1.598099 7.917310 -0.770391 27.028401 -2.798623 -0.000000 0.000001 3.404104 4.032780 -12.559587 -0.781562 -0.000001 -0.000003 7.928601 -0.439546 12.735801 1.565452 0.000000 0.000000 2.173899 -0.029491 0.133311 1.196966 2.833804 -1.396301 4.843300 -3.507071 5.692222 16.533304 4.363596 0.000009 -0.000001 -57.132586 -9.485070 -72.801333 0.000001 0.000008 -10.306905 266.498354 -114.671281 275.827600 -0.000003 0.000005 -12.404899 -232.379701 196.346533 -220.045636 -2.354801 -1.897203 5.063105 14.339699 7.422443 -6.148833 -4.375791 0.000004 -0.000003 190.115747 -64.586125 258.148174 -0.000012 -0.000007 -10.005008 42.331477 20.575684 -113.145854 -0.000004 0.000003 -13.174909 138.290485 -186.436051 64.923332 2.240597 0.386806 -2.614102 137.361770 -37.948937 102.332216 0.000000 -0.000002 -18.592894 -114.431350 42.494736 138.428100 -0.000001 0.000001 -18.765799 8.950825 35.367652 -9.744381 -2.014897 -0.220901 -2.615898 -114.616680 -16.607576 -94.285277 0.000000 0.000003 -18.633883 156.595979 21.885169 -173.694320 -0.000007 -0.000002 -18.285084 -36.421526 32.456075 -216.423737
-5.864799 26.583303 7.178509 2.444651 -2.182968 3.690961 -0.204901 1.598098 7.917309 -0.827410 26.422705 -2.572459 -0.000000 -0.000000 3.404103 3.752954 -12.692820 -0.821783 -0.000001 -0.000005 7.928597 -0.222929 12.727416 1.149004 0.000001 -0.000002 2.173908 0.018517 0.071629 1.270176 2.833801 -1.396304 4.843302 -3.562110 6.042009 16.665282 4.363596 0.000004 -0.000007 -57.098397 -9.079713 -73.422826 0.000001 0.000008 -10.306906 265.346292 -114.426405 274.258706 -0.000003 0.000004 -12.404895 -232.409208 196.450652 -220.784048 -2.354801 -1.897204 5.063101 14.613046 7.756220 -6.734670 -4.375790 0.000002 -0.000003 188.710190 -63.990219 256.660286 -0.000011 -0.000006 -10.005007 42.363217 20.515221 -112.733707 -0.000007 0.000006 -13.174904 137.812099 -186.726280 64.426019 2.240597 0.386807 -2.614100 137.649130 -37.644991 102.715117 0.000002 -0.000001 -18.592896 -114.206992 42.163277 138.345987 0.000000 -0.000000 -18.765799 9.234013 35.232595 -9.905050 -2.014899 -0.220898 -2.615897 -114.711456 -16.545373 -94.683149 -0.000000 0.000001 -18.633884 156.695113 21.882504 -173.794450 -0.000008 -0.000002 -18.285084 -36.269220 32.434690 -216.573455
